<?xml version="1.0" encoding="UTF-8"?>
<svg width="47px" height="47px" viewBox="0 0 47 47" version="1.1" xmlns="http://www.w3.org/2000/svg" xmlns:xlink="http://www.w3.org/1999/xlink">
    <!-- Generator: Sketch 57.1 (83088) - https://sketch.com -->
    <title>Shape</title>
    <desc>Created with Sketch.</desc>
    <defs>
        <linearGradient x1="50%" y1="100%" x2="50%" y2="0%" id="linearGradient-1">
            <stop stop-color="#BFBBC3" offset="0%"></stop>
            <stop stop-color="#FFFFFF" offset="100%"></stop>
        </linearGradient>
    </defs>
    <g id="Page-1" stroke="none" stroke-width="1" fill="none" fill-rule="evenodd">
        <path d="M40.1250941,6.8751458 C30.9585529,-2.29126314 16.0426905,-2.29216739 6.87524501,6.8751458 C-2.29220046,16.042459 -2.2912962,30.9572019 6.87524501,40.1245151 C16.0417862,49.2918283 30.9576486,49.2918283 40.1250941,40.1245151 C49.2916353,30.9572019 49.2916353,16.0415547 40.1250941,6.8751458 Z M32.7716056,32.7711327 C32.0653741,33.477354 30.9205737,33.477354 30.2143422,32.7711327 L23.5001696,26.0570569 L16.4667911,33.0903339 C15.7605596,33.7965552 14.6157592,33.7965552 13.9095277,33.0903339 C13.2032962,32.3841126 13.2032962,31.2393287 13.9095277,30.5331074 L20.9429062,23.4998305 L14.2287335,16.7857547 C13.522502,16.0795334 13.522502,14.9338453 14.2287335,14.2285282 C14.934965,13.5223069 16.0797654,13.5223069 16.7859969,14.2285282 L23.5001696,20.942604 L29.8942322,14.5486336 C30.6004637,13.8424123 31.745264,13.8424123 32.4514955,14.5486336 C33.157727,15.2548549 33.157727,16.3996388 32.4514955,17.1058601 L26.0574329,23.4998305 L32.7716056,30.2139063 C33.4778371,30.9201276 33.4778371,32.0649114 32.7716056,32.7711327 Z" id="Shape" fill="url(#linearGradient-1)" fill-rule="nonzero"></path>
    </g>
</svg>