<?xml version="1.0" encoding="UTF-8"?>
<svg width="20px" height="20px" viewBox="0 0 20 20" version="1.1" xmlns="http://www.w3.org/2000/svg" xmlns:xlink="http://www.w3.org/1999/xlink">
    <!-- Generator: Sketch 57.1 (83088) - https://sketch.com -->
    <title>Shape</title>
    <desc>Created with Sketch.</desc>
    <defs>
        <linearGradient x1="50%" y1="100%" x2="50%" y2="0%" id="linearGradient-1">
            <stop stop-color="#BFBBC3" offset="0%"></stop>
            <stop stop-color="#FFFFFF" offset="100%"></stop>
        </linearGradient>
    </defs>
    <g id="Page-1" stroke="none" stroke-width="1" fill="none" fill-rule="evenodd">
        <path d="M17.0745081,2.92563617 C13.1738523,-0.975019659 6.8266768,-0.975404453 2.92563617,2.92563617 C-0.975404453,6.8266768 -0.975019659,13.1734675 2.92563617,17.0745081 C6.82629201,20.9755488 13.1734675,20.9755488 17.0745081,17.0745081 C20.975164,13.1734675 20.975164,6.82629201 17.0745081,2.92563617 Z M13.9453641,13.9453641 C13.64484,14.2458881 13.1576909,14.2458881 12.8571669,13.9453641 L10.0000721,11.0882693 L7.00714514,14.0811963 C6.7066211,14.3817204 6.21947202,14.3817204 5.91894797,14.0811963 C5.61842393,13.7806723 5.61842393,13.2935232 5.91894797,12.9929992 L8.91187498,10.0000721 L6.05478022,7.14297739 C5.75425618,6.84245335 5.75425618,6.35491947 6.05478022,6.05478022 C6.35530426,5.75425618 6.84245335,5.75425618 7.14297739,6.05478022 L10.0000721,8.91187498 L12.7209499,6.19099727 C13.0214739,5.89047323 13.508623,5.89047323 13.809147,6.19099727 C14.1096711,6.49152131 14.1096711,6.97867039 13.809147,7.27919444 L11.0882693,10.0000721 L13.9453641,12.8571669 C14.2458881,13.1576909 14.2458881,13.64484 13.9453641,13.9453641 Z" id="Shape" fill="url(#linearGradient-1)" fill-rule="nonzero"></path>
    </g>
</svg>