<?xml version="1.0" encoding="UTF-8"?>
<svg width="20px" height="17px" viewBox="0 0 20 17" version="1.1" xmlns="http://www.w3.org/2000/svg" xmlns:xlink="http://www.w3.org/1999/xlink">
    <!-- Generator: Sketch 54.1 (76490) - https://sketchapp.com -->
    <title>Shape</title>
    <desc>Created with Sketch.</desc>
    <g id="Page-1" stroke="none" stroke-width="1" fill="none" fill-rule="evenodd">
        <path d="M12.9284569,12.1762581 C14.1144812,10.9305219 14.854407,9.26247311 14.854407,7.4255217 C14.854407,3.57213418 11.6227281,0.426103376 7.64025517,0.426103376 C3.65778224,0.426103376 0.426103376,3.57213418 0.426103376,7.4255217 C0.426103376,11.2789092 3.65778224,14.42494 7.64025517,14.42494 C9.26154794,14.42494 10.7522294,13.90765 11.9600286,13.0313907 L17.3243851,18.2360739 C17.454958,18.3627602 17.6181741,18.4261034 17.7813902,18.4261034 C17.9446063,18.4261034 18.1186906,18.3627602 18.2383953,18.2360739 C18.4886727,17.9932461 18.4886727,17.5920976 18.2383953,17.338725 L12.9284569,12.1762581 Z M1.73183221,7.4255217 C1.73183221,4.26890886 4.37593309,1.69296642 7.64025517,1.69296642 C10.893709,1.69296642 13.5486781,4.25836408 13.5486781,7.4255217 C13.5486781,10.5926793 10.9045773,13.158077 7.64025517,13.158077 C4.37593309,13.158077 1.73183221,10.5821345 1.73183221,7.4255217 Z" id="Shape" fill="#D9D9D9" fill-rule="nonzero" transform="translate(9.426103, 9.426103) rotate(-10.000000) translate(-9.426103, -9.426103) "></path>
    </g>
</svg>